<mxfile host="Electron" modified="2023-12-07T14:39:23.104Z" agent="Mozilla/5.0 (Windows NT 10.0; Win64; x64) AppleWebKit/537.36 (KHTML, like Gecko) draw.io/21.7.5 Chrome/114.0.5735.289 Electron/25.8.1 Safari/537.36" etag="jpUFcNYrghTuibyqK7YV" version="21.7.5" type="device">
  <diagram id="_8DVooJ6I-LJaCqOsPuH" name="Страница 1">
    <mxGraphModel dx="1050" dy="621" grid="1" gridSize="10" guides="1" tooltips="1" connect="1" arrows="1" fold="1" page="1" pageScale="1" pageWidth="1169" pageHeight="827" math="0" shadow="0">
      <root>
        <mxCell id="0" />
        <mxCell id="1" parent="0" />
        <mxCell id="LA-G4Ssv7THbibrzKtyV-1" value="&lt;h1&gt;Singleton Method&lt;/h1&gt;&lt;p&gt;Диаграмма классов паттерна &quot;Одиночка&quot;&lt;/p&gt;" style="text;html=1;strokeColor=none;fillColor=none;spacing=5;spacingTop=-20;whiteSpace=wrap;overflow=hidden;rounded=0;" parent="1" vertex="1">
          <mxGeometry x="40" y="40" width="300" height="80" as="geometry" />
        </mxCell>
        <mxCell id="LA-G4Ssv7THbibrzKtyV-2" value="SingletonClass" style="swimlane;fontStyle=0;childLayout=stackLayout;horizontal=1;startSize=26;fillColor=none;horizontalStack=0;resizeParent=1;resizeParentMax=0;resizeLast=0;collapsible=1;marginBottom=0;" parent="1" vertex="1">
          <mxGeometry x="280" y="160" width="210" height="130" as="geometry" />
        </mxCell>
        <mxCell id="LA-G4Ssv7THbibrzKtyV-3" value="- static INSTANCE: SingletonClass" style="text;strokeColor=none;fillColor=none;align=left;verticalAlign=top;spacingLeft=4;spacingRight=4;overflow=hidden;rotatable=0;points=[[0,0.5],[1,0.5]];portConstraint=eastwest;" parent="LA-G4Ssv7THbibrzKtyV-2" vertex="1">
          <mxGeometry y="26" width="210" height="26" as="geometry" />
        </mxCell>
        <mxCell id="LA-G4Ssv7THbibrzKtyV-4" value="- SingletonClass()" style="text;strokeColor=none;fillColor=none;align=left;verticalAlign=top;spacingLeft=4;spacingRight=4;overflow=hidden;rotatable=0;points=[[0,0.5],[1,0.5]];portConstraint=eastwest;" parent="LA-G4Ssv7THbibrzKtyV-2" vertex="1">
          <mxGeometry y="52" width="210" height="26" as="geometry" />
        </mxCell>
        <mxCell id="LA-G4Ssv7THbibrzKtyV-5" value="+ static getInstance(): SingletonClass" style="text;strokeColor=none;fillColor=none;align=left;verticalAlign=top;spacingLeft=4;spacingRight=4;overflow=hidden;rotatable=0;points=[[0,0.5],[1,0.5]];portConstraint=eastwest;" parent="LA-G4Ssv7THbibrzKtyV-2" vertex="1">
          <mxGeometry y="78" width="210" height="26" as="geometry" />
        </mxCell>
        <mxCell id="w4aVL4uHHZGH782ofNmt-4" value="+ void printHash()" style="text;strokeColor=none;fillColor=none;align=left;verticalAlign=top;spacingLeft=4;spacingRight=4;overflow=hidden;rotatable=0;points=[[0,0.5],[1,0.5]];portConstraint=eastwest;" vertex="1" parent="LA-G4Ssv7THbibrzKtyV-2">
          <mxGeometry y="104" width="210" height="26" as="geometry" />
        </mxCell>
        <mxCell id="LA-G4Ssv7THbibrzKtyV-11" value="+ static getInstance() {&lt;br&gt;...&lt;br&gt;...&lt;br&gt;return INSTANCE&lt;br&gt;}" style="shape=note;size=20;whiteSpace=wrap;html=1;" parent="1" vertex="1">
          <mxGeometry x="560" y="196.5" width="165" height="109" as="geometry" />
        </mxCell>
        <mxCell id="LA-G4Ssv7THbibrzKtyV-17" style="edgeStyle=orthogonalEdgeStyle;rounded=0;orthogonalLoop=1;jettySize=auto;html=1;exitX=1;exitY=0.5;exitDx=0;exitDy=0;entryX=0;entryY=0.5;entryDx=0;entryDy=0;entryPerimeter=0;endArrow=none;endFill=0;" parent="1" source="LA-G4Ssv7THbibrzKtyV-5" target="LA-G4Ssv7THbibrzKtyV-11" edge="1">
          <mxGeometry relative="1" as="geometry" />
        </mxCell>
      </root>
    </mxGraphModel>
  </diagram>
</mxfile>
